REM MD5 4cb45fbade0d1d3003c205840b07e3dc
FILE "Registration Demo 01 (Europe).bin" BINARY
  TRACK 01 MODE2/2352
    INDEX 01 00:00:00
  TRACK 02 AUDIO
    INDEX 00 36:31:51
    INDEX 01 36:33:51
  TRACK 03 AUDIO
    INDEX 00 38:25:41
    INDEX 01 38:27:41
  TRACK 04 AUDIO
    INDEX 00 41:42:09
    INDEX 01 41:44:09
  TRACK 05 AUDIO
    INDEX 00 45:17:39
    INDEX 01 45:19:39
REM LEADOUT 48:29:48
